<svg  viewBox="0 0 17 14" fill="none" xmlns="http://www.w3.org/2000/svg">
<path d="M3.34798 0.870605C2.66277 0.870605 2.00563 1.1428 1.52112 1.62732C1.0366 2.11183 0.764404 2.76898 0.764404 3.45418V4.31537H16.84V3.45418C16.84 2.76898 16.5678 2.11183 16.0833 1.62732C15.5988 1.1428 14.9416 0.870605 14.2564 0.870605H3.34798ZM0.764404 10.9178V5.46363H16.84V10.9178C16.84 11.6031 16.5678 12.2602 16.0833 12.7447C15.5988 13.2292 14.9416 13.5014 14.2564 13.5014H3.34798C2.66277 13.5014 2.00563 13.2292 1.52112 12.7447C1.0366 12.2602 0.764404 11.6031 0.764404 10.9178ZM11.6728 8.9084C11.5206 8.9084 11.3745 8.96889 11.2669 9.07656C11.1592 9.18423 11.0987 9.33026 11.0987 9.48253C11.0987 9.6348 11.1592 9.78083 11.2669 9.8885C11.3745 9.99617 11.5206 10.0567 11.6728 10.0567H13.3952C13.5475 10.0567 13.6935 9.99617 13.8012 9.8885C13.9089 9.78083 13.9694 9.6348 13.9694 9.48253C13.9694 9.33026 13.9089 9.18423 13.8012 9.07656C13.6935 8.96889 13.5475 8.9084 13.3952 8.9084H11.6728Z" 
/>
</svg>
