<svg  viewBox="0 0 19 19" fill="none" xmlns="http://www.w3.org/2000/svg">
<path d="M2.72669 16.2724H6.17146V9.97343H13.061V16.2724H16.5058V6.82392L9.61623 2.09967L2.72669 6.82392V16.2724ZM2.72669 18.3721C2.09515 18.3721 1.55432 18.1663 1.1042 17.7548C0.654088 17.3433 0.429412 16.8491 0.430178 16.2724V6.82392C0.430178 6.49148 0.511704 6.17653 0.674756 5.87907C0.837808 5.58162 1.06248 5.33666 1.34878 5.14419L8.23832 0.419934C8.44883 0.279956 8.66891 0.174972 8.89857 0.104983C9.12822 0.0349944 9.36744 0 9.61623 0C9.86502 0 10.1042 0.0349944 10.3339 0.104983C10.5635 0.174972 10.7836 0.279956 10.9941 0.419934L17.8837 5.14419C18.1707 5.33666 18.3958 5.58162 18.5588 5.87907C18.7219 6.17653 18.803 6.49148 18.8023 6.82392V16.2724C18.8023 16.8498 18.5772 17.3443 18.1271 17.7558C17.677 18.1674 17.1365 18.3728 16.5058 18.3721H10.7645V12.0731H8.46797V18.3721H2.72669Z"/>
</svg>
