<svg  viewBox="0 0 16 15" fill="none" xmlns="http://www.w3.org/2000/svg">
<path d="M1.1803 14.076C0.963409 14.076 0.781474 14.0025 0.634497 13.8555C0.48752 13.7085 0.414287 13.5268 0.414798 13.3105V5.65541C0.414798 5.43852 0.488286 5.25658 0.635263 5.1096C0.78224 4.96263 0.963919 4.88939 1.1803 4.8899H3.85957C4.07646 4.8899 4.25839 4.96339 4.40537 5.11037C4.55235 5.25735 4.62558 5.43903 4.62507 5.65541V13.3105C4.62507 13.5273 4.55158 13.7093 4.40461 13.8563C4.25763 14.0032 4.07595 14.0765 3.85957 14.076H1.1803ZM6.73021 14.076C6.51332 14.076 6.33138 14.0025 6.1844 13.8555C6.03743 13.7085 5.96419 13.5268 5.9647 13.3105V1.06238C5.9647 0.845489 6.03819 0.663554 6.18517 0.516577C6.33215 0.369601 6.51383 0.296367 6.73021 0.296878H9.40947C9.62637 0.296878 9.8083 0.370366 9.95528 0.517343C10.1023 0.66432 10.1755 0.845999 10.175 1.06238V13.3105C10.175 13.5273 10.1015 13.7093 9.95451 13.8563C9.80754 14.0032 9.62586 14.0765 9.40947 14.076H6.73021ZM12.2801 14.076C12.0632 14.076 11.8813 14.0025 11.7343 13.8555C11.5873 13.7085 11.5141 13.5268 11.5146 13.3105V7.18642C11.5146 6.96952 11.5881 6.78759 11.7351 6.64061C11.8821 6.49364 12.0637 6.4204 12.2801 6.42091H14.9594C15.1763 6.42091 15.3582 6.4944 15.5052 6.64138C15.6522 6.78836 15.7254 6.97004 15.7249 7.18642V13.3105C15.7249 13.5273 15.6514 13.7093 15.5044 13.8563C15.3574 14.0032 15.1758 14.0765 14.9594 14.076H12.2801Z" />
</svg>
