<svg  viewBox="0 0 16 16" fill="none" xmlns="http://www.w3.org/2000/svg">
<path d="M6.02275 15.8408L5.71655 13.3912C5.55069 13.3274 5.39427 13.2509 5.2473 13.1616C5.10032 13.0723 4.95692 12.9766 4.81708 12.8745L2.53971 13.8314L0.43457 10.1953L2.40574 8.70252C2.39299 8.61321 2.38661 8.52697 2.38661 8.44378V7.92783C2.38661 7.84465 2.39299 7.7584 2.40574 7.66909L0.43457 6.17636L2.53971 2.54021L4.81708 3.49709C4.95743 3.39502 5.10415 3.29934 5.25725 3.21003C5.41035 3.12072 5.56345 3.04417 5.71655 2.98038L6.02275 0.530762H10.233L10.5392 2.98038C10.7051 3.04417 10.8615 3.12072 11.0085 3.21003C11.1555 3.29934 11.2989 3.39502 11.4387 3.49709L13.7161 2.54021L15.8212 6.17636L13.85 7.66909C13.8628 7.7584 13.8692 7.84465 13.8692 7.92783V8.44378C13.8692 8.52697 13.8564 8.61321 13.8309 8.70252L15.8021 10.1953L13.6969 13.8314L11.4387 12.8745C11.2984 12.9766 11.1516 13.0723 10.9985 13.1616C10.8454 13.2509 10.6923 13.3274 10.5392 13.3912L10.233 15.8408H6.02275ZM8.16616 10.8651C8.90615 10.8651 9.53769 10.6035 10.0608 10.0804C10.5839 9.55733 10.8454 8.92579 10.8454 8.18581C10.8454 7.44582 10.5839 6.81428 10.0608 6.29118C9.53769 5.76809 8.90615 5.50654 8.16616 5.50654C7.41342 5.50654 6.77856 5.76809 6.26159 6.29118C5.74462 6.81428 5.48639 7.44582 5.4869 8.18581C5.4869 8.92579 5.74513 9.55733 6.26159 10.0804C6.77805 10.6035 7.41291 10.8651 8.16616 10.8651Z" />
</svg>
